<?xml version="1.0" standalone="no"?>
<!DOCTYPE svg PUBLIC "-//W3C//DTD SVG 20010904//EN"
 "http://www.w3.org/TR/2001/REC-SVG-20010904/DTD/svg10.dtd">
<svg version="1.0" xmlns="http://www.w3.org/2000/svg"
 width="96.000000pt" height="96.000000pt" viewBox="0 0 96.000000 96.000000"
 preserveAspectRatio="xMidYMid meet">
<metadata>
Created by potrace 1.10, written by Peter Selinger 2001-2011
</metadata>
<g transform="translate(0.000000,96.000000) scale(0.100000,-0.100000)"
fill="#000000" stroke="none">
<path d="M136 650 c-77 -24 -102 -102 -48 -154 16 -14 51 -35 78 -45 53 -20
71 -39 61 -65 -13 -32 -97 -11 -97 25 0 5 -20 9 -44 9 -41 0 -43 -1 -38 -25
12 -66 129 -113 203 -82 47 19 64 43 64 88 0 50 -28 79 -111 114 -35 15 -64
33 -64 39 0 37 62 49 82 16 10 -15 24 -20 55 -20 24 0 43 2 43 4 0 1 -5 17
-11 34 -7 22 -24 37 -53 51 -45 22 -73 25 -120 11z"/>
<path d="M714 642 c-61 -29 -79 -92 -40 -141 6 -8 44 -29 84 -48 63 -28 73
-36 70 -56 -3 -19 -9 -22 -43 -22 -32 0 -42 5 -50 23 -8 18 -18 22 -52 22 -47
0 -51 -6 -28 -50 29 -57 119 -83 191 -55 50 19 64 38 64 90 0 44 -36 83 -96
104 -67 23 -86 39 -74 61 14 27 66 27 82 0 10 -15 24 -20 55 -20 l43 0 -13 32
c-28 68 -116 96 -193 60z"/>
<path d="M340 615 l0 -36 50 7 50 7 0 -142 0 -141 43 0 42 0 -3 141 -4 142 56
-7 56 -6 0 35 0 35 -145 0 -145 0 0 -35z"/>
</g>
</svg>
