<svg xmlns="http://www.w3.org/2000/svg" version="1.1" xmlns:xlink="http://www.w3.org/1999/xlink" viewBox="0 0 200 200"><rect width="200" height="200" fill="url('#gradient')"></rect><defs><linearGradient id="gradient" gradientTransform="rotate(45 0.5 0.5)"><stop offset="0%" stop-color="#3c3c3c"></stop><stop offset="100%" stop-color="#010000"></stop></linearGradient></defs><g><g fill="#ffffff" transform="matrix(4.9196221322537115,0,0,4.9196221322537115,7.908852792313866,134.958288455402)" stroke="#a7b7b5" stroke-width="0"><path d="M8.41-3.78L8.41-3.78Q8.41-4.53 7.88-4.95Q7.34-5.37 6.01-5.82Q4.67-6.27 3.82-6.69L3.82-6.69Q1.05-8.05 1.05-10.42L1.05-10.42Q1.05-11.60 1.74-12.50Q2.43-13.41 3.69-13.91Q4.95-14.41 6.52-14.41L6.52-14.41Q8.06-14.41 9.27-13.87Q10.49-13.32 11.16-12.31Q11.84-11.30 11.84-10L11.84-10L8.42-10Q8.42-10.87 7.89-11.35Q7.35-11.83 6.45-11.83L6.45-11.83Q5.53-11.83 5.00-11.42Q4.46-11.02 4.46-10.39L4.46-10.39Q4.46-9.84 5.05-9.40Q5.63-8.96 7.11-8.48Q8.58-8.01 9.53-7.46L9.53-7.46Q11.84-6.13 11.84-3.80L11.84-3.80Q11.84-1.93 10.43-0.87Q9.02 0.20 6.57 0.20L6.57 0.20Q4.84 0.20 3.44-0.42Q2.04-1.04 1.33-2.12Q0.63-3.20 0.63-4.61L0.63-4.61L4.06-4.61Q4.06-3.47 4.65-2.92Q5.24-2.38 6.57-2.38L6.57-2.38Q7.42-2.38 7.92-2.75Q8.41-3.12 8.41-3.78ZM24.76-14.22L24.76-11.57L20.49-11.57L20.49 0L17.06 0L17.06-11.57L12.87-11.57L12.87-14.22L24.76-14.22ZM33.38-3.78L33.38-3.78Q33.38-4.53 32.85-4.95Q32.31-5.37 30.98-5.82Q29.64-6.27 28.79-6.69L28.79-6.69Q26.03-8.05 26.03-10.42L26.03-10.42Q26.03-11.60 26.71-12.50Q27.40-13.41 28.66-13.91Q29.92-14.41 31.49-14.41L31.49-14.41Q33.03-14.41 34.24-13.87Q35.46-13.32 36.13-12.31Q36.81-11.30 36.81-10L36.81-10L33.39-10Q33.39-10.87 32.86-11.35Q32.32-11.83 31.42-11.83L31.42-11.83Q30.50-11.83 29.97-11.42Q29.43-11.02 29.43-10.39L29.43-10.39Q29.43-9.84 30.02-9.40Q30.61-8.96 32.08-8.48Q33.55-8.01 34.50-7.46L34.50-7.46Q36.81-6.13 36.81-3.80L36.81-3.80Q36.81-1.93 35.40-0.87Q33.99 0.20 31.54 0.20L31.54 0.20Q29.81 0.20 28.41-0.42Q27.01-1.04 26.30-2.12Q25.60-3.20 25.60-4.61L25.60-4.61L29.03-4.61Q29.03-3.47 29.62-2.92Q30.21-2.38 31.54-2.38L31.54-2.38Q32.39-2.38 32.89-2.75Q33.38-3.12 33.38-3.78Z"></path></g></g></svg>